<svg width="24" height="24" viewBox="0 0 24 24" fill="none" xmlns="http://www.w3.org/2000/svg">
<path d="M5.27001 9.7501C5.26876 8.86096 5.44344 7.98035 5.78398 7.15901C6.12451 6.33766 6.62418 5.5918 7.25421 4.96438C7.88424 4.33697 8.63217 3.84041 9.45493 3.50329C10.2777 3.16617 11.159 2.99516 12.0481 3.0001C15.7606 3.02823 18.7325 6.1126 18.7325 9.83448V10.5001C18.7325 13.8564 19.4356 15.8064 20.0544 16.8751C20.1201 16.9889 20.1548 17.118 20.1549 17.2494C20.155 17.3809 20.1206 17.51 20.0551 17.624C19.9895 17.7379 19.8952 17.8326 19.7816 17.8986C19.6679 17.9647 19.5389 17.9996 19.4075 18.0001H4.59501C4.46359 17.9996 4.33459 17.9647 4.22094 17.8986C4.10729 17.8326 4.01299 17.7379 3.94748 17.624C3.88196 17.51 3.84754 17.3809 3.84766 17.2494C3.84777 17.118 3.88242 16.9889 3.94814 16.8751C4.56689 15.8064 5.27001 13.8564 5.27001 10.5001V9.7501Z" stroke="white" stroke-width="1.5" stroke-linecap="round" stroke-linejoin="round"/>
<path d="M9 18V18.75C9 19.5456 9.31607 20.3087 9.87868 20.8713C10.4413 21.4339 11.2044 21.75 12 21.75C12.7956 21.75 13.5587 21.4339 14.1213 20.8713C14.6839 20.3087 15 19.5456 15 18.75V18" stroke="white" stroke-width="1.5" stroke-linecap="round" stroke-linejoin="round"/>
</svg>
