<svg width="117" height="124" viewBox="0 0 117 124" fill="none" xmlns="http://www.w3.org/2000/svg">
<g clip-path="url(#clip0_627_4353)">
<path d="M61.8372 89.5601C56.4976 93.9701 50.3528 95.1875 43.7249 94.7192C33.6813 94.0126 28.0365 85.5588 31.7319 76.7559C33.4524 72.6609 36.8681 70.4815 40.6736 68.8299C46.4625 66.3014 52.6666 65.2628 58.8199 64.0964C61.3626 63.6112 61.5151 63.4324 60.871 60.955C60.1505 58.1796 58.1503 56.6897 54.6838 56.4684C49.8018 56.1619 45.1488 57.2686 40.7075 59.1671C35.9527 61.1933 36.2494 61.1678 33.9949 56.4173C32.5117 53.3014 32.9439 52.5777 36.2663 51.139C43.6062 47.9464 51.2258 46.5247 59.0996 48.0571C66.5327 49.4959 70.5416 55.5234 70.8891 62.8449C71.1773 68.9916 70.8891 75.1554 71.0417 81.3106C71.1264 84.767 71.6095 88.215 71.8384 91.6799C72.0079 94.1659 71.7706 94.3617 69.3211 94.3787C68.8296 94.3787 68.3295 94.3787 67.8379 94.3787C65.0636 94.3787 63.2131 93.0705 62.2864 90.454C62.2016 90.2071 62.0491 89.9858 61.8287 89.5686L61.8372 89.5601ZM60.9134 77.5136C60.9134 77.1645 60.9134 76.807 60.9134 76.4579C60.9134 72.397 60.8964 72.3119 57.0654 73.1547C52.5479 74.1423 47.9372 74.917 43.9537 77.5051C41.4788 79.1141 40.716 80.9104 41.3008 83.1665C41.8602 85.3289 43.5384 86.4867 46.4625 86.6911C49.751 86.9209 52.8785 86.2143 55.9467 85.0735C59.4555 83.771 62.2525 82.0172 60.9134 77.5136Z" fill="#2C6A87"/>
<path d="M19.0961 95.5955C19.0368 98.4986 19.1216 101.41 18.9012 104.296C18.2655 112.333 14.4176 118.412 7.56934 122.626C5.94202 123.63 4.908 123.426 4.08587 121.63C3.22983 119.774 2.22125 117.986 1.22113 116.19C0.619361 115.108 0.797344 114.342 1.86527 113.721C6.69636 110.903 8.63726 106.586 8.4169 101.104C8.32367 98.7029 8.34909 96.2851 8.32366 93.8843C8.32366 70.6767 8.32366 47.4691 8.32366 24.27C8.32366 23.989 8.29824 23.7081 8.26434 23.4271C7.93097 20.6801 9.16558 19.3066 11.9682 19.3066C18.5198 19.3066 18.9944 19.7834 18.9944 26.3983C18.9944 48.5503 18.9944 70.6937 18.9944 92.8457C18.9944 93.7651 19.0622 94.6761 19.0961 95.5955Z" fill="#2C6A87"/>
<path d="M93.3334 52.2027C97.5288 48.6186 102.309 46.984 107.801 47.6906C110.344 48.0141 112.751 48.7122 114.989 49.9893C116.362 50.764 116.743 51.7004 115.726 53.0711C114.76 54.3737 113.827 55.7018 112.988 57.0895C111.963 58.7581 110.819 59.1242 108.937 58.2643C102.894 55.4889 96.8677 57.464 93.6301 63.0233C93.0452 64.0194 92.9774 64.9984 92.9774 66.0626C92.9774 74.4824 92.9774 82.9022 92.9774 91.322C92.9774 94.1825 92.7825 94.3783 90.0194 94.3868C88.4684 94.3868 86.9174 94.3187 85.3664 94.4038C83.4339 94.506 82.7728 93.6546 82.7898 91.7561C82.8491 83.0554 82.8152 74.3462 82.8152 65.6455C82.8152 60.6225 82.8576 55.5996 82.7898 50.5767C82.7643 48.7037 83.4254 47.7587 85.3664 47.9035C85.9257 47.946 86.4936 47.9035 87.0615 47.9035C91.2993 47.9035 91.7993 48.2355 93.3588 52.2027H93.3334Z" fill="#2C6A87"/>
<path d="M94.9123 29.8979C89.115 29.8979 84.6823 29.915 80.2495 29.8979C77.2916 29.8894 75.6727 28.4251 75.3507 25.4284C74.7658 19.9117 75.2066 14.3694 75.0879 8.84422C75.0371 6.59668 75.1133 4.34062 75.071 2.09307C75.054 1.08849 75.3761 0.620248 76.4355 0.662815C80.7327 0.82457 80.0122 -0.0352868 80.0461 4.28102C80.0885 9.76367 79.9105 15.2634 80.1394 20.7375C80.3428 25.5816 79.902 25.1815 84.5043 25.173C92.5307 25.1474 100.557 25.156 108.592 25.1389C110.846 25.1389 110.804 25.1134 110.448 22.8148C110.092 20.5332 109.321 18.4814 107.566 16.9064C104.693 14.3269 101.574 14.5142 98.3534 16.1573C97.9805 16.3446 97.6415 16.6085 97.2601 16.7787C95.9887 17.3321 95.2005 16.6851 94.9801 15.34C94.6072 13.0584 95.6751 12.0197 97.6245 11.1769C104.591 8.18869 111.118 11.526 114.025 17.562C115.601 20.8396 115.949 24.4579 116.05 28.0846C116.084 29.3531 115.364 29.6596 114.262 29.6681C107.354 29.7362 100.455 30.0512 94.9123 29.9065V29.8979Z" fill="#DC5932"/>
<path d="M69.4931 21.0786C69.4931 23.8454 69.5609 26.6038 69.4762 29.3706C69.3151 34.8278 66.1029 38.1991 59.5258 37.5521C58.2121 37.4244 56.9577 37.1434 55.7372 36.6581C55.0592 36.3942 54.771 35.9515 55.1355 35.2364C55.1524 35.1938 55.1609 35.1427 55.1778 35.1002C56.8306 31.6522 55.7711 31.8481 59.475 32.8101C62.5262 33.6018 64.5603 32.1375 64.6281 28.962C64.7298 24.186 64.679 19.4099 64.7044 14.6339C64.7044 13.8421 64.8739 13.0419 64.8231 12.2586C64.7129 10.6751 65.5435 10.3091 66.8911 10.4538C67.264 10.4964 67.637 10.4879 68.0099 10.4623C69.0693 10.3942 69.527 10.8369 69.5101 11.9436C69.4677 14.9915 69.4931 18.0308 69.4931 21.0786Z" fill="#DC5932"/>
<path d="M103.378 33.0137C103.827 33.1924 104.166 33.7118 104.582 34.1545C106.616 36.3169 106.582 36.2828 104.438 38.3771C103.666 39.1263 103.166 39.0752 102.412 38.3856C99.1234 35.3889 99.8439 36.402 102.522 33.3542C102.7 33.1499 102.912 32.937 103.387 33.0222L103.378 33.0137Z" fill="#DC5932"/>
</g>
<defs>
<clipPath id="clip0_627_4353">
<rect width="117" height="124" fill="white"/>
</clipPath>
</defs>
</svg>
