<svg width="24" height="24" viewBox="0 0 24 24" fill="none" xmlns="http://www.w3.org/2000/svg">
<path d="M11.4672 6.69381L13.3234 4.83756C14.1094 4.12124 15.1411 3.73529 16.2042 3.7599C17.2672 3.78451 18.28 4.2178 19.0319 4.96972C19.7838 5.72164 20.2171 6.73438 20.2417 7.79748C20.2663 8.86057 19.8804 9.89227 19.1641 10.6782L16.5109 13.3219C16.1286 13.7057 15.6742 14.0103 15.1738 14.2181C14.6735 14.4259 14.1371 14.5328 13.5953 14.5328C13.0535 14.5328 12.5171 14.4259 12.0168 14.2181C11.5164 14.0103 11.0621 13.7057 10.6797 13.3219" stroke="#A1A1A1" stroke-width="1.5" stroke-linecap="round" stroke-linejoin="round"/>
<path d="M12.5335 17.3058L10.6772 19.1621C9.8913 19.8784 8.85959 20.2643 7.7965 20.2397C6.7334 20.2151 5.72067 19.7818 4.96874 19.0299C4.21682 18.278 3.78353 17.2652 3.75892 16.2021C3.73431 15.1391 4.12027 14.1074 4.83659 13.3214L7.48971 10.6777C7.87208 10.2939 8.32647 9.98935 8.8268 9.78156C9.32713 9.57376 9.86357 9.4668 10.4053 9.4668C10.9471 9.4668 11.4835 9.57376 11.9839 9.78156C12.4842 9.98935 12.9386 10.2939 13.321 10.6777" stroke="#A1A1A1" stroke-width="1.5" stroke-linecap="round" stroke-linejoin="round"/>
</svg>
